<?xml version="1.0" encoding="utf-8"?>
<!-- Svg Vector Icons : http://www.onlinewebfonts.com/icon -->
<!DOCTYPE svg PUBLIC "-//W3C//DTD SVG 1.1//EN" "http://www.w3.org/Graphics/SVG/1.1/DTD/svg11.dtd">
<svg version="1.1" xmlns="http://www.w3.org/2000/svg" xmlns:xlink="http://www.w3.org/1999/xlink" x="0px" y="0px" viewBox="0 0 256 256" enable-background="new 0 0 256 256" xml:space="preserve">
<metadata> Svg Vector Icons : http://www.onlinewebfonts.com/icon </metadata>
<g><g><path fill="#035aca" d="M174.6,86.9H163c-0.2,0-0.3,0.1-0.5,0.1c-0.2,0-0.3-0.1-0.5-0.1h-15.3v-7.7c0-2.2-1.8-4.1-4.1-4.1h-29.2c-2.2,0-4.1,1.8-4.1,4.1v7.7H94c-0.1,0-0.3,0.1-0.4,0.1c-0.1,0-0.3-0.1-0.4-0.1H81.4c-2.2,0-4.1,1.8-4.1,4.1c0,2.2,1.8,4.1,4.1,4.1h8.7l4.4,82c0.1,2.2,1.9,3.9,4.1,3.9h58.8c2.2,0,3.9-1.7,4.1-3.9l4.4-82h8.7c2.2,0,4.1-1.8,4.1-4.1C178.6,88.7,176.8,86.9,174.6,86.9z M117.5,83.2h21.1v3.6h-21.1V83.2z M153.6,172.8h-51.1L98.3,95h59.4L153.6,172.8z"/><path fill="#035aca" d="M112.6,168.3c0.1,0,0.1,0,0.2,0c2.2-0.1,4-2,3.9-4.3l-3.3-60.3c-0.1-2.2-2.2-4-4.3-3.9c-2.2,0.1-4,2-3.9,4.3l3.3,60.3C108.7,166.6,110.5,168.3,112.6,168.3z"/><path fill="#035aca" d="M143.1,168.3c0.1,0,0.1,0,0.2,0c2.1,0,3.9-1.7,4.1-3.9l3.3-60.3c0.1-2.2-1.6-4.2-3.9-4.3c-2.2-0.1-4.2,1.6-4.3,3.9l-3.3,60.3C139.1,166.2,140.8,168.2,143.1,168.3z"/><path fill="#035aca" d="M128,168.3c2.2,0,4.1-1.8,4.1-4.1v-60.3c0-2.2-1.8-4.1-4.1-4.1c-2.2,0-4.1,1.8-4.1,4.1v60.3C123.9,166.5,125.8,168.3,128,168.3z"/><path fill="#035aca" d="M128,18.1c60.6,0,109.9,49.3,109.9,109.9c0,60.6-49.3,109.9-109.9,109.9c-60.6,0-109.9-49.3-109.9-109.9C18.1,67.4,67.4,18.1,128,18.1 M128,10C62.8,10,10,62.8,10,128c0,65.2,52.8,118,118,118c65.2,0,118-52.8,118-118C246,62.8,193.2,10,128,10L128,10z"/></g></g>
</svg>